<svg xmlns="http://www.w3.org/2000/svg" width="512" height="512" viewBox="0 0 512 512">
  <defs>
    <radialGradient id="bg" cx="30%" cy="20%" r="80%">
      <stop offset="0%" stop-color="#0b1430"/>
      <stop offset="55%" stop-color="#070a12"/>
      <stop offset="100%" stop-color="#04050b"/>
    </radialGradient>

    <linearGradient id="neon" x1="0" y1="0" x2="1" y2="1">
      <stop offset="0%" stop-color="#7CF6FF"/>
      <stop offset="55%" stop-color="#A78BFA"/>
      <stop offset="100%" stop-color="#35F2A6"/>
    </linearGradient>

    <filter id="glow" x="-40%" y="-40%" width="180%" height="180%">
      <feGaussianBlur stdDeviation="10" result="blur"/>
      <feColorMatrix in="blur" type="matrix"
        values="1 0 0 0 0
                0 1 0 0 0
                0 0 1 0 0
                0 0 0 0.9 0" result="glowColor"/>
      <feMerge>
        <feMergeNode in="glowColor"/>
        <feMergeNode in="SourceGraphic"/>
      </feMerge>
    </filter>

    <filter id="softShadow" x="-30%" y="-30%" width="160%" height="160%">
      <feDropShadow dx="0" dy="10" stdDeviation="12" flood-color="#000000" flood-opacity="0.6"/>
    </filter>
  </defs>

  <!-- Background -->
  <rect x="0" y="0" width="512" height="512" rx="120" fill="url(#bg)"/>

  <!-- Outer glow ring -->
  <circle cx="256" cy="256" r="170" fill="none" stroke="url(#neon)" stroke-width="10" opacity="0.25" filter="url(#glow)"/>

  <!-- Shield -->
  <path filter="url(#softShadow)"
        d="M256 92
           C320 130 368 142 404 154
           V262
           C404 344 350 404 256 442
           C162 404 108 344 108 262
           V154
           C144 142 192 130 256 92 Z"
        fill="rgba(255,255,255,0.03)" stroke="url(#neon)" stroke-width="10" />

  <!-- Inner neon edge -->
  <path filter="url(#glow)"
        d="M256 110
           C314 144 358 154 388 164
           V262
           C388 336 342 388 256 420
           C170 388 124 336 124 262
           V164
           C154 154 198 144 256 110 Z"
        fill="rgba(0,0,0,0)" stroke="url(#neon)" stroke-width="6" opacity="0.9"/>

  <!-- Check mark -->
  <path filter="url(#glow)"
        d="M196 268 L238 310 L328 214"
        fill="none" stroke="url(#neon)" stroke-width="18" stroke-linecap="round" stroke-linejoin="round"/>

  <!-- Spark -->
  <path filter="url(#glow)" d="M356 160 L372 128 L388 160 L420 176 L388 192 L372 224 L356 192 L324 176 Z"
        fill="url(#neon)" opacity="0.9"/>

  <!-- Small dots -->
  <circle cx="140" cy="150" r="6" fill="#7CF6FF" opacity="0.55" filter="url(#glow)"/>
  <circle cx="390" cy="360" r="7" fill="#A78BFA" opacity="0.45" filter="url(#glow)"/>
</svg>
